<svg width="211" height="62" viewBox="0 0 211 62" fill="none" xmlns="http://www.w3.org/2000/svg">
<path d="M14.848 5.248C12.16 5.33333 10.0907 6.35733 8.64 8.32C7.232 10.2827 6.528 13.6747 6.528 18.496C6.528 20.0747 6.67733 21.184 6.976 21.824C7.27467 22.4213 7.424 22.7627 7.424 22.848C5.12 22.848 3.392 22.3787 2.24 21.44C1.13067 20.4587 0.576 18.8587 0.576 16.64C0.576 13.6107 1.32267 10.8587 2.816 8.384C4.30933 5.86666 6.67733 3.84 9.92 2.304C13.2053 0.767996 17.3653 -3.8147e-06 22.4 -3.8147e-06C23.424 -3.8147e-06 24.7893 0.106663 26.496 0.319996C29.568 0.618664 31.744 0.767998 33.024 0.767998C35.2853 0.767998 37.2053 0.511997 38.784 -3.8147e-06C38.656 0.383996 38.4213 1.23733 38.08 2.56C37.7387 3.84 37.12 4.94933 36.224 5.888C35.3707 6.784 34.1973 7.38133 32.704 7.68C30.1867 7.68 27.2 7.27466 23.744 6.464L21.056 19.2H30.4L29.376 23.936H20.032L14.848 48H5.632L14.848 5.248ZM35.711 48.384C33.663 48.384 31.999 47.744 30.719 46.464C29.4817 45.184 28.863 43.264 28.863 40.704C28.863 39.6373 29.0337 38.2507 29.375 36.544L36.223 4.48L45.695 3.2L38.335 37.76C38.1643 38.4 38.079 39.0827 38.079 39.808C38.079 40.6613 38.271 41.28 38.655 41.664C39.0817 42.0053 39.7643 42.176 40.703 42.176C41.9403 42.176 43.0923 41.664 44.159 40.64C45.2257 39.5733 45.9937 38.208 46.463 36.544H49.151C47.5723 41.152 45.5457 44.288 43.071 45.952C40.5963 47.5733 38.143 48.384 35.711 48.384ZM56.9975 48.384C53.5842 48.384 50.8322 47.552 48.7415 45.888C46.6508 44.224 45.6055 41.5787 45.6055 37.952C45.6055 35.136 46.1815 31.9787 47.3335 28.48C48.4855 24.9813 50.3628 21.9307 52.9655 19.328C55.5682 16.7253 58.8748 15.424 62.8855 15.424C67.5788 15.424 69.9255 17.472 69.9255 21.568C69.9255 23.9573 69.2428 26.1547 67.8775 28.16C66.5122 30.1653 64.6988 31.7867 62.4375 33.024C60.1762 34.2187 57.7442 34.9013 55.1415 35.072C55.0988 35.456 55.0775 36.032 55.0775 36.8C55.0775 41.024 57.2108 43.136 61.4775 43.136C63.9095 43.136 66.5122 42.496 69.2855 41.216C72.0588 39.936 74.4695 38.144 76.5175 35.84L72.8695 16H81.8935L84.3895 29.824C86.3095 27.776 87.8028 25.856 88.8695 24.064C89.9362 22.272 90.4695 20.8 90.4695 19.648C90.4695 19.264 90.4482 19.008 90.4055 18.88C89.8082 18.9653 89.4242 19.008 89.2535 19.008C88.2295 19.008 87.4828 18.688 87.0135 18.048C86.5442 17.408 86.3095 16.6187 86.3095 15.68C86.3095 14.6133 86.6295 13.8027 87.2695 13.248C87.9095 12.6933 88.7415 12.416 89.7655 12.416C91.2162 12.416 92.3255 12.9493 93.0935 14.016C93.8615 15.04 94.2455 16.3627 94.2455 17.984C94.2455 20.032 93.5415 22.2293 92.1335 24.576C90.7255 26.9227 88.3788 29.8667 85.0935 33.408L85.6695 36.544C85.7122 36.7573 85.8402 37.44 86.0535 38.592C86.3095 39.7013 86.7148 40.576 87.2695 41.216C87.8242 41.856 88.5495 42.176 89.4455 42.176C90.6828 42.176 91.8348 41.664 92.9015 40.64C93.9682 39.5733 94.7362 38.208 95.2055 36.544H97.8935C96.3148 41.152 94.3308 44.288 91.9415 45.952C89.5522 47.5733 87.2055 48.384 84.9015 48.384C82.7682 48.384 81.1468 47.7227 80.0375 46.4C78.9282 45.0773 77.9895 42.7733 77.2215 39.488C74.6615 42.176 71.5255 44.3307 67.8135 45.952C64.1442 47.5733 60.5388 48.384 56.9975 48.384ZM55.6535 32C57.2748 31.9573 58.7895 31.424 60.1975 30.4C61.6482 29.376 62.8002 28.0747 63.6535 26.496C64.5495 24.8747 64.9975 23.1893 64.9975 21.44C64.9975 19.6907 64.4642 18.816 63.3975 18.816C61.9042 18.816 60.4108 20.2027 58.9175 22.976C57.4242 25.7067 56.3362 28.7147 55.6535 32ZM105.876 12.544C104.468 12.544 103.273 12.0533 102.292 11.072C101.31 10.0907 100.82 8.896 100.82 7.488C100.82 6.08 101.31 4.88533 102.292 3.904C103.273 2.88 104.468 2.368 105.876 2.368C107.284 2.368 108.478 2.88 109.46 3.904C110.484 4.88533 110.996 6.08 110.996 7.488C110.996 8.896 110.484 10.0907 109.46 11.072C108.478 12.0533 107.284 12.544 105.876 12.544ZM101.524 48.384C99.4755 48.384 97.8115 47.744 96.5315 46.464C95.2942 45.184 94.6755 43.264 94.6755 40.704C94.6755 39.6373 94.8462 38.2507 95.1875 36.544L99.5395 16H108.756L104.148 37.76C103.977 38.4 103.892 39.0827 103.892 39.808C103.892 40.6613 104.084 41.28 104.468 41.664C104.894 42.0053 105.577 42.176 106.516 42.176C107.284 42.176 107.966 42.048 108.564 41.792C108.393 43.9253 107.625 45.568 106.26 46.72C104.937 47.8293 103.358 48.384 101.524 48.384ZM132.998 61.248C129.968 61.248 127.622 60.416 125.958 58.752C124.336 57.1307 123.526 54.9547 123.526 52.224C123.526 49.92 124.23 47.9147 125.638 46.208C127.046 44.5013 128.944 43.648 131.334 43.648C133.168 43.648 134.662 43.9253 135.814 44.48C137.008 44.992 137.606 46.144 137.606 47.936C137.606 48.704 137.478 49.5573 137.222 50.496C136.454 49.856 135.792 49.408 135.238 49.152C134.683 48.9387 134.064 48.832 133.382 48.832C131.974 48.832 130.864 49.3013 130.054 50.24C129.286 51.1787 128.902 52.288 128.902 53.568C128.902 55.0613 129.35 56.1707 130.246 56.896C131.142 57.664 132.144 58.048 133.254 58.048C134.278 58.048 135.131 57.8347 135.814 57.408C136.539 57.024 137.179 56.256 137.734 55.104C138.288 53.9947 138.822 52.352 139.333 50.176L149.382 4.48C146.523 5.632 144.304 7.40266 142.726 9.792C141.147 12.1813 140.358 15.0827 140.358 18.496C140.358 20.0747 140.507 21.184 140.806 21.824C141.104 22.4213 141.253 22.7627 141.253 22.848C138.95 22.848 137.222 22.3787 136.07 21.44C134.96 20.4587 134.406 18.8587 134.406 16.64C134.406 13.9093 135.515 11.264 137.734 8.704C139.995 6.10133 142.875 4.01067 146.374 2.432C149.872 0.810664 153.371 -3.8147e-06 156.87 -3.8147e-06H159.43L149.83 45.44C148.72 50.688 146.886 54.6347 144.326 57.28C141.766 59.9253 137.99 61.248 132.998 61.248ZM166.094 48.256C162.937 48.256 160.441 47.4453 158.606 45.824C156.771 44.2027 155.854 41.6427 155.854 38.144C155.854 35.2427 156.451 32.0213 157.646 28.48C158.841 24.9387 160.761 21.888 163.406 19.328C166.051 16.7253 169.379 15.424 173.39 15.424C178.851 15.424 181.582 18.8373 181.582 25.664V25.728C181.71 25.7707 181.945 25.792 182.286 25.792C183.694 25.792 185.315 25.4293 187.15 24.704C188.985 23.936 190.649 23.0187 192.142 21.952L192.718 23.68C191.481 25.0027 189.859 26.1333 187.854 27.072C185.891 27.968 183.737 28.608 181.39 28.992C181.049 32.8747 180.174 36.2667 178.766 39.168C177.358 42.0693 175.545 44.3093 173.326 45.888C171.107 47.4667 168.697 48.256 166.094 48.256ZM168.654 42.496C169.678 42.496 170.702 41.92 171.726 40.768C172.75 39.5733 173.646 37.9733 174.414 35.968C175.182 33.92 175.737 31.6587 176.078 29.184C174.926 28.928 174.35 28.032 174.35 26.496C174.35 24.7467 175.011 23.5947 176.334 23.04C176.249 21.632 176.035 20.672 175.694 20.16C175.353 19.6053 174.755 19.328 173.902 19.328C172.494 19.328 171.129 20.352 169.806 22.4C168.483 24.448 167.417 26.9013 166.606 29.76C165.795 32.6187 165.39 35.136 165.39 37.312C165.39 39.36 165.625 40.7467 166.094 41.472C166.563 42.1547 167.417 42.496 168.654 42.496ZM193.387 48.384C190.486 48.384 188.267 47.68 186.731 46.272C185.195 44.8213 184.427 42.7947 184.427 40.192C184.427 38.912 184.576 37.696 184.875 36.544L191.723 4.48L201.195 3.2L198.123 17.6C199.318 16.8747 200.299 16.4053 201.067 16.192C201.835 15.936 202.603 15.808 203.371 15.808C208.406 15.808 210.923 19.456 210.923 26.752C210.923 29.696 210.347 32.8533 209.195 36.224C208.086 39.552 206.208 42.4107 203.563 44.8C200.96 47.1893 197.568 48.384 193.387 48.384ZM196.971 42.176C198.294 42.176 199.531 41.3653 200.683 39.744C201.835 38.08 202.752 36.032 203.435 33.6C204.118 31.1253 204.459 28.7573 204.459 26.496C204.459 24.7893 204.16 23.3387 203.563 22.144C202.966 20.9493 202.134 20.352 201.067 20.352C200.427 20.352 199.702 20.4587 198.891 20.672C198.123 20.8427 197.59 21.12 197.291 21.504L193.771 37.76C193.643 38.272 193.579 38.7627 193.579 39.232C193.579 41.1947 194.71 42.176 196.971 42.176Z" fill="#278A33"/>
</svg>
